PathFileType	4	(X/Y/Z)	/Users/itak/Documents/Research/Walk-IL/dataset/trc/00164_00008.trc
DataRate	CameraRate	NumFrames	NumMarkers	Units	OrigDataRate	OrigDataStartFrame	OrigNumFrames
100.000000	100.000000	4	53	mm	100.000000	152	608
Frame#	Time	RPSI			LPSI			L3			STRN			T10			C7			CLAV			RBAK			LBAK			LSHO			LUPA			LAEL			LAOL			LWTS			LWPS			LFRA			LIFD			LHPS			LHTS			RSHO			RUPA			RAEL			RAOL			RWTS			RWPS			RFRA			RIFD			RHTS			RHPS			RBHD			LFHD			RFHD			LBHD			LHIP			RHIP			RASI			LASI			LKNE			LTHI			LANK			LTIP			LTOE			LMT1			LMT5			LHEE			RKNE			RTHI			RANK			RTIP			RTOE			RMT1			RMT5			RHEE			
		X1	Y1	Z1	X2	Y2	Z2	X3	Y3	Z3	X4	Y4	Z4	X5	Y5	Z5	X6	Y6	Z6	X7	Y7	Z7	X8	Y8	Z8	X9	Y9	Z9	X10	Y10	Z10	X11	Y11	Z11	X12	Y12	Z12	X13	Y13	Z13	X14	Y14	Z14	X15	Y15	Z15	X16	Y16	Z16	X17	Y17	Z17	X18	Y18	Z18	X19	Y19	Z19	X20	Y20	Z20	X21	Y21	Z21	X22	Y22	Z22	X23	Y23	Z23	X24	Y24	Z24	X25	Y25	Z25	X26	Y26	Z26	X27	Y27	Z27	X28	Y28	Z28	X29	Y29	Z29	X30	Y30	Z30	X31	Y31	Z31	X32	Y32	Z32	X33	Y33	Z33	X34	Y34	Z34	X35	Y35	Z35	X36	Y36	Z36	X37	Y37	Z37	X38	Y38	Z38	X39	Y39	Z39	X40	Y40	Z40	X41	Y41	Z41	X42	Y42	Z42	X43	Y43	Z43	X44	Y44	Z44	X45	Y45	Z45	X46	Y46	Z46	X47	Y47	Z47	X48	Y48	Z48	X49	Y49	Z49	X50	Y50	Z50	X51	Y51	Z51	X52	Y52	Z52	X53	Y53	Z53	

153	1.52	-1941.11279296875	1058.067016601562	4.405426502227783	-1930.098388671875	1060.31103515625	-118.7194290161133	-1933.262084960938	1097.463989257812	-54.59238433837891	-1664.2294921875	1299.02294921875	-35.95005035400391	-1960.240478515625	1253.416015625	-62.74921798706055	-1890.61767578125	1522.35400390625	-59.28358459472656	-1690.018432617188	1413.97802734375	-42.77641677856445	-1968.990966796875	1344.479614257812	35.68125915527344	-1888.36767578125	1500.4755859375	-162.438232421875	-1804.220458984375	1488.874633789062	-233.7420043945312	-1826.39501953125	1360.3115234375	-316.0894470214844	-1803.0361328125	1142.12353515625	-341.0296936035156	-1863.563842773438	1124.511108398438	-279.6194152832031	-1695.027221679688	912.2022094726562	-292.481201171875	-1765.423950195312	890.8114624023438	-351.8317260742188	-1783.594116210938	1032.379272460938	-355.1283569335938	-1680.96337890625	726.4273681640625	-272.6875610351562	-1742.2607421875	821.5753173828125	-345.0984497070312	-1678.399780273438	834.7394409179688	-311.6613464355469	-1844	1493.951538085938	124.6461868286133	-1870.15869140625	1425.3544921875	191.2725830078125	-1883.252807617188	1131.800537109375	226.8267517089844	-1885.903442382812	1130.927856445312	127.3590316772461	-1738.177124023438	908.4015502929688	196.36669921875	-1814.179809570312	887.8642578125	241.6997985839844	-1856.821044921875	1058.817260742188	240.7480926513672	-1714.865478515625	722.5531005859375	164.1236267089844	-1709.480224609375	815.5432739257812	199.3417358398438	-1781.77294921875	804.618896484375	232.8772277832031	-1846.136962890625	1680.293334960938	25.13667869567871	-1684.286865234375	1737.82421875	-109.4963302612305	-1679.692016601562	1735.703857421875	20.07532119750977	-1856.931518554688	1689.638427734375	-112.278205871582	-1821.778564453125	994.7322998046875	-232.8285827636719	-1797.275756835938	1010.96826171875	139.5462799072266	-1709.725341796875	1037.208862304688	89.39371490478516	-1698.928955078125	1028.919799804688	-169.0126800537109	-1777.882446289062	494.6950988769531	-234.4001159667969	-1782.269897460938	640.5165405273438	-250.3377075195312	-1931.478393554688	45.68925857543945	-270.0522155761719	-1852.774658203125	277.1716003417969	-265.0196228027344	-1713.291381835938	39.10201263427734	-257.5002136230469	-1759.685302734375	38.82286071777344	-207.06884765625	-1826.9326171875	31.98798561096191	-316.9786376953125	-1977.728515625	48.56417465209961	-196.2863311767578	-1801.99462890625	509.7047119140625	101.0324325561523	-1752.025756835938	775.3748168945312	144.5851287841797	-1932.929565429688	35.89723587036133	79.09572601318359	-1801.253784179688	387.6115112304688	79.95542144775391	-1707.640014648438	38.9306640625	67.43296813964844	-1758.275268554688	38.06976318359375	15.33776760101318	-1825.52734375	33.69533157348633	123.4118041992188	-1977.375366210938	36.10089874267578	8.057940483093262	
154	1.53	-1940.9296875	1057.925659179688	6.78821325302124	-1930.19384765625	1060.277709960938	-116.2964401245117	-1933.096801757812	1097.513061523438	-52.12973785400391	-1663.447387695312	1298.796020507812	-33.8826904296875	-1959.729125976562	1253.660888671875	-60.2367057800293	-1889.517944335938	1522.443481445312	-56.83554077148438	-1689.1025390625	1413.815551757812	-40.69061279296875	-1968.127197265625	1344.753784179688	38.16683197021484	-1887.502075195312	1500.626220703125	-160.0107421875	-1803.50927734375	1488.929931640625	-231.4215087890625	-1826.050659179688	1360.482543945312	-313.8245239257812	-1803.140991210938	1142.332641601562	-338.9538269042969	-1863.3193359375	1124.660400390625	-277.1943359375	-1694.5810546875	912.5634765625	-291.1554565429688	-1765.358032226562	891.0577392578125	-350.06103515625	-1783.749145507812	1032.599365234375	-353.2250366210938	-1680.041625976562	726.8584594726562	-271.4942932128906	-1741.996459960938	821.863525390625	-343.4854431152344	-1677.943237304688	835.1836547851562	-310.4758911132812	-1842.696044921875	1493.993408203125	127.0108795166016	-1868.884887695312	1425.421630859375	193.6752777099609	-1882.233032226562	1131.812622070312	228.5707092285156	-1884.83740234375	1131.034057617188	129.0663757324219	-1737.64013671875	908.1111450195312	198.6270751953125	-1813.899536132812	887.7540893554688	243.5428771972656	-1856.026123046875	1058.82666015625	242.4983367919922	-1714.713623046875	722.1913452148438	166.4328765869141	-1709.19580078125	815.1221923828125	201.7217864990234	-1781.719482421875	804.421142578125	234.8638153076172	-1844.700317382812	1680.397338867188	27.16279411315918	-1683.08203125	1737.422607421875	-107.9621505737305	-1678.197998046875	1735.63720703125	21.59158134460449	-1855.791625976562	1689.413940429688	-110.2360305786133	-1821.940063476562	994.7445068359375	-230.5702819824219	-1797.290161132812	1010.6923828125	141.9307250976562	-1709.6494140625	1037.15966796875	91.77340698242188	-1699.18115234375	1029.091552734375	-166.6870574951172	-1770.158447265625	494.5826416015625	-234.1795806884766	-1777.313598632812	640.6029052734375	-249.2497863769531	-1931.119384765625	47.19792556762695	-269.5174560546875	-1848.696899414062	277.5508422851562	-264.6226501464844	-1713.251342773438	39.0750617980957	-257.6442260742188	-1759.360229492188	38.73435974121094	-207.1421661376953	-1826.780517578125	32.33110046386719	-316.6005859375	-1977.100952148438	50.75550079345703	-195.5736999511719	-1801.572509765625	509.4177856445312	102.3853912353516	-1751.623901367188	774.9793701171875	146.5587310791016	-1933.05078125	35.76296997070312	79.24456787109375	-1800.955932617188	387.3284301757812	80.96999359130859	-1707.772216796875	38.92727661132812	67.26422119140625	-1758.453857421875	38.08154678344727	15.24769687652588	-1825.553955078125	33.65361785888672	123.4241714477539	-1977.568969726562	36.00504302978516	8.219597816467285	
155	1.54	-1940.792724609375	1057.761108398438	9.192050933837891	-1930.371948242188	1060.205810546875	-113.8387832641602	-1932.97216796875	1097.546508789062	-49.63456726074219	-1662.628173828125	1298.497436523438	-31.8599910736084	-1959.21533203125	1253.917724609375	-57.65873718261719	-1888.33447265625	1522.520874023438	-54.34629058837891	-1688.130981445312	1413.594116210938	-38.64571380615234	-1967.195434570312	1345.040161132812	40.72455978393555	-1886.597534179688	1500.765625	-157.5470886230469	-1802.783325195312	1488.964233398438	-229.1061553955078	-1825.715942382812	1360.62158203125	-311.5474853515625	-1803.269653320312	1142.501098632812	-336.8369445800781	-1863.085327148438	1124.775634765625	-274.7176208496094	-1694.161376953125	912.8936767578125	-289.8022155761719	-1765.311157226562	891.2611694335938	-348.2392578125	-1783.930297851562	1032.77294921875	-351.2718200683594	-1679.013549804688	727.2930297851562	-270.2841491699219	-1741.7333984375	822.1138916015625	-341.820068359375	-1677.475219726562	835.6116333007812	-309.2492065429688	-1841.24755859375	1493.981567382812	129.3939208984375	-1867.447998046875	1425.413818359375	196.0822296142578	-1881.105224609375	1131.77490234375	230.3744812011719	-1883.62255859375	1131.059448242188	130.8296508789062	-1736.986938476562	907.7684326171875	200.9426116943359	-1813.469116210938	887.5781860351562	245.4295043945312	-1855.108642578125	1058.78173828125	244.3124542236328	-1714.41064453125	721.7670288085938	168.8198089599609	-1708.77294921875	814.656982421875	204.1667327880859	-1781.541381835938	804.1814575195312	236.9140319824219	-1843.171752929688	1680.48583984375	29.17597389221191	-1681.814331054688	1736.965698242188	-106.485725402832	-1676.604858398438	1735.546020507812	23.0410213470459	-1854.586547851562	1689.127075195312	-108.1889266967773	-1822.17431640625	994.6713256835938	-228.2819061279297	-1797.195922851562	1010.382751464844	144.3172454833984	-1709.59814453125	1037.090942382812	94.13304901123047	-1699.540405273438	1029.244262695312	-164.3904418945312	-1761.696166992188	494.5646057128906	-234.0146179199219	-1771.780395507812	640.7508544921875	-248.1099090576172	-1930.627319335938	49.19679641723633	-268.8333435058594	-1844.201171875	278.2267456054688	-264.1998291015625	-1713.187255859375	39.01347732543945	-257.8563232421875	-1758.952758789062	38.63869476318359	-207.2461242675781	-1826.607177734375	32.84209823608398	-316.1097412109375	-1976.235717773438	53.57057189941406	-194.6893463134766	-1801.152465820312	509.1283874511719	103.7442474365234	-1751.28271484375	774.5921630859375	148.5209045410156	-1933.175537109375	35.63189315795898	79.39894866943359	-1800.681030273438	387.0254516601562	81.99668884277344	-1707.914428710938	38.93051147460938	67.08587646484375	-1758.632568359375	38.09850692749023	15.16091251373291	-1825.580688476562	33.61397552490234	123.4382553100586	-1977.766357421875	35.91808319091797	8.373061180114746	
156	1.55	-1940.693481445312	1057.578125	11.60387420654297	-1930.615478515625	1060.096435546875	-111.3610229492188	-1932.872802734375	1097.5615234375	-47.11686325073242	-1661.7724609375	1298.120971679688	-29.89797782897949	-1958.6953125	1254.1884765625	-55.02284240722656	-1887.061767578125	1522.582885742188	-51.81827926635742	-1687.099609375	1413.310791015625	-36.65605926513672	-1966.188232421875	1345.336059570312	43.35055923461914	-1885.653564453125	1500.89306640625	-155.0494995117188	-1802.04736328125	1488.975952148438	-226.8027496337891	-1825.3984375	1360.722412109375	-309.2580871582031	-1803.425659179688	1142.625366210938	-334.6797485351562	-1862.860229492188	1124.852294921875	-272.1863403320312	-1693.76708984375	913.1929931640625	-288.4271850585938	-1765.276977539062	891.4179077148438	-346.3663940429688	-1784.136596679688	1032.896850585938	-349.2685546875	-1677.909790039062	727.6998291015625	-269.0908813476562	-1741.478149414062	822.3243408203125	-340.1092224121094	-1676.990356445312	836.0128784179688	-307.9895629882812	-1839.640991210938	1493.9072265625	131.7906188964844	-1865.834228515625	1425.325927734375	198.4890899658203	-1879.868286132812	1131.680541992188	232.2530212402344	-1882.2578125	1130.993041992188	132.6651306152344	-1736.21337890625	907.36962890625	203.2939147949219	-1812.87353515625	887.3309326171875	247.3584747314453	-1854.065063476562	1058.673461914062	246.2025756835938	-1713.957641601562	721.2850341796875	171.2507629394531	-1708.212158203125	814.1497802734375	206.6484680175781	-1781.226684570312	803.8922729492188	239.0142669677734	-1841.54150390625	1680.552978515625	31.1760368347168	-1680.473388671875	1736.451049804688	-105.0695571899414	-1674.907348632812	1735.425415039062	24.42270851135254	-1853.30615234375	1688.776611328125	-106.1416931152344	-1822.472045898438	994.513427734375	-225.9819641113281	-1796.985961914062	1010.051940917969	146.6814270019531	-1709.556762695312	1037.006591796875	96.45333099365234	-1699.992919921875	1029.373779296875	-162.1435699462891	-1752.535766601562	494.6949462890625	-233.8663635253906	-1765.654174804688	641.0010986328125	-246.8970184326172	-1929.968994140625	51.74926376342773	-267.978271484375	-1839.282592773438	279.2684936523438	-263.729736328125	-1713.08544921875	38.90682601928711	-258.1501159667969	-1758.440795898438	38.55149841308594	-207.3828277587891	-1826.404907226562	33.56877899169922	-315.5051574707031	-1975.065307617188	57.06900405883789	-193.6083984375	-1800.750122070312	508.8328857421875	105.0919799804688	-1750.9560546875	774.246826171875	150.4241638183594	-1933.300903320312	35.50765609741211	79.55239868164062	-1800.431396484375	386.7140808105469	83.01406097412109	-1708.068725585938	38.94527435302734	66.89705657958984	-1758.810546875	38.12086486816406	15.07672214508057	-1825.606811523438	33.57883453369141	123.4509735107422	-1977.963500976562	35.83852767944336	8.516325950622559	
